<svg width="62" height="62" viewBox="0 0 62 62" fill="none" xmlns="http://www.w3.org/2000/svg">
<g filter="url(#filter0_d_25733_436)">
<path fill-rule="evenodd" clip-rule="evenodd" d="M44 31C44 34.4478 42.6304 37.7544 40.1924 40.1924C37.7544 42.6304 34.4478 44 31 44C27.5522 44 24.2456 42.6304 21.8076 40.1924C19.3696 37.7544 18 34.4478 18 31C18 27.5522 19.3696 24.2456 21.8076 21.8076C24.2456 19.3696 27.5522 18 31 18C34.4478 18 37.7544 19.3696 40.1924 21.8076C42.6304 24.2456 44 27.5522 44 31ZM26.125 27.75C26.125 27.319 26.2962 26.9057 26.601 26.601C26.9057 26.2962 27.319 26.125 27.75 26.125C28.181 26.125 28.5943 26.2962 28.899 26.601C29.2038 26.9057 29.375 27.319 29.375 27.75V34.25C29.375 34.681 29.2038 35.0943 28.899 35.399C28.5943 35.7038 28.181 35.875 27.75 35.875C27.319 35.875 26.9057 35.7038 26.601 35.399C26.2962 35.0943 26.125 34.681 26.125 34.25V27.75ZM34.25 26.125C33.819 26.125 33.4057 26.2962 33.101 26.601C32.7962 26.9057 32.625 27.319 32.625 27.75V34.25C32.625 34.681 32.7962 35.0943 33.101 35.399C33.4057 35.7038 33.819 35.875 34.25 35.875C34.681 35.875 35.0943 35.7038 35.399 35.399C35.7038 35.0943 35.875 34.681 35.875 34.25V27.75C35.875 27.319 35.7038 26.9057 35.399 26.601C35.0943 26.2962 34.681 26.125 34.25 26.125Z" fill="#FACD66"/>
<path fill-rule="evenodd" clip-rule="evenodd" d="M44 31C44 34.4478 42.6304 37.7544 40.1924 40.1924C37.7544 42.6304 34.4478 44 31 44C27.5522 44 24.2456 42.6304 21.8076 40.1924C19.3696 37.7544 18 34.4478 18 31C18 27.5522 19.3696 24.2456 21.8076 21.8076C24.2456 19.3696 27.5522 18 31 18C34.4478 18 37.7544 19.3696 40.1924 21.8076C42.6304 24.2456 44 27.5522 44 31ZM26.125 27.75C26.125 27.319 26.2962 26.9057 26.601 26.601C26.9057 26.2962 27.319 26.125 27.75 26.125C28.181 26.125 28.5943 26.2962 28.899 26.601C29.2038 26.9057 29.375 27.319 29.375 27.75V34.25C29.375 34.681 29.2038 35.0943 28.899 35.399C28.5943 35.7038 28.181 35.875 27.75 35.875C27.319 35.875 26.9057 35.7038 26.601 35.399C26.2962 35.0943 26.125 34.681 26.125 34.25V27.75ZM34.25 26.125C33.819 26.125 33.4057 26.2962 33.101 26.601C32.7962 26.9057 32.625 27.319 32.625 27.75V34.25C32.625 34.681 32.7962 35.0943 33.101 35.399C33.4057 35.7038 33.819 35.875 34.25 35.875C34.681 35.875 35.0943 35.7038 35.399 35.399C35.7038 35.0943 35.875 34.681 35.875 34.25V27.75C35.875 27.319 35.7038 26.9057 35.399 26.601C35.0943 26.2962 34.681 26.125 34.25 26.125Z" stroke="black"/>
</g>
<defs>
<filter id="filter0_d_25733_436" x="0" y="0" width="62" height="62" filterUnits="userSpaceOnUse" color-interpolation-filters="sRGB">
<feFlood flood-opacity="0" result="BackgroundImageFix"/>
<feColorMatrix in="SourceAlpha" type="matrix" values="0 0 0 0 0 0 0 0 0 0 0 0 0 0 0 0 0 0 127 0" result="hardAlpha"/>
<feOffset/>
<feGaussianBlur stdDeviation="9"/>
<feComposite in2="hardAlpha" operator="out"/>
<feColorMatrix type="matrix" values="0 0 0 0 1 0 0 0 0 1 0 0 0 0 1 0 0 0 0.3 0"/>
<feBlend mode="normal" in2="BackgroundImageFix" result="effect1_dropShadow_25733_436"/>
<feBlend mode="normal" in="SourceGraphic" in2="effect1_dropShadow_25733_436" result="shape"/>
</filter>
</defs>
</svg>
